<svg width="28" height="28" viewBox="0 0 28 28" fill="none" xmlns="http://www.w3.org/2000/svg">
<g clip-path="url(#clip0_5_8)">
<path d="M14.2511 5.16878C11.5282 5.16878 8.9168 6.15211 6.99143 7.90245C5.06606 9.65279 3.98439 12.0268 3.98439 14.5021H7.83439C8.51511 14.5021 9.16795 14.748 9.6493 15.1855C10.1306 15.6231 10.4011 16.2166 10.4011 16.8355V22.6688C10.4011 23.2876 10.1306 23.8811 9.6493 24.3187C9.16795 24.7563 8.51511 25.0021 7.83439 25.0021H3.98439C3.30367 25.0021 2.65083 24.7563 2.16948 24.3187C1.68814 23.8811 1.41772 23.2876 1.41772 22.6688V14.5021C1.41772 8.05862 7.16321 2.83545 14.2511 2.83545C21.3389 2.83545 27.0844 8.05862 27.0844 14.5021V22.6688C27.0844 23.2876 26.814 23.8811 26.3326 24.3187C25.8513 24.7563 25.1984 25.0021 24.5177 25.0021H20.6677C19.987 25.0021 19.3342 24.7563 18.8528 24.3187C18.3715 23.8811 18.1011 23.2876 18.1011 22.6688V16.8355C18.1011 16.2166 18.3715 15.6231 18.8528 15.1855C19.3342 14.748 19.987 14.5021 20.6677 14.5021H24.5177C24.5177 12.0268 23.4361 9.65279 21.5107 7.90245C19.5853 6.15211 16.9739 5.16878 14.2511 5.16878ZM3.98439 16.8355V22.6688H7.83439V16.8355H3.98439ZM20.6677 16.8355V22.6688H24.5177V16.8355H20.6677Z" fill="black"/>
</g>
<defs>
<clipPath id="clip0_5_8">
<rect width="28" height="28" fill="white"/>
</clipPath>
</defs>
</svg>
