<svg width="179" height="33" viewBox="0 0 179 33" fill="none" xmlns="http://www.w3.org/2000/svg">
<path d="M31 27H1V29C1 30.105 1.895 31 3 31H29C30.105 31 31 30.105 31 29V27Z" stroke="#7855F7" stroke-width="2" stroke-miterlimit="10" stroke-linejoin="round"/>
<path d="M27 9H5C3.895 9 3 9.895 3 11V27H29V11C29 9.895 28.105 9 27 9Z" stroke="#7855F7" stroke-width="2" stroke-miterlimit="10" stroke-linejoin="round"/>
<path d="M13 27V31" stroke="#7855F7" stroke-width="2" stroke-miterlimit="10" stroke-linejoin="round"/>
<path d="M19 27V31" stroke="#7855F7" stroke-width="2" stroke-miterlimit="10" stroke-linejoin="round"/>
<path d="M44.92 27V10.2H51.712C52.752 10.2 53.664 10.384 54.448 10.752C55.248 11.104 55.872 11.616 56.32 12.288C56.768 12.944 56.992 13.736 56.992 14.664V14.928C56.992 16.032 56.728 16.904 56.2 17.544C55.672 18.184 55.048 18.616 54.328 18.84V19.176C54.904 19.192 55.376 19.384 55.744 19.752C56.128 20.104 56.32 20.64 56.32 21.36V27H54.328V21.6C54.328 21.12 54.192 20.752 53.92 20.496C53.664 20.24 53.272 20.112 52.744 20.112H46.936V27H44.92ZM46.936 18.288H51.52C52.624 18.288 53.472 18.024 54.064 17.496C54.672 16.952 54.976 16.2 54.976 15.24V15.072C54.976 14.112 54.68 13.368 54.088 12.84C53.496 12.296 52.64 12.024 51.52 12.024H46.936V18.288ZM65.5086 27.336C64.3246 27.336 63.2846 27.088 62.3886 26.592C61.4926 26.08 60.7966 25.368 60.3006 24.456C59.8046 23.544 59.5566 22.488 59.5566 21.288V21C59.5566 19.784 59.8046 18.72 60.3006 17.808C60.7966 16.896 61.4846 16.192 62.3646 15.696C63.2446 15.184 64.2526 14.928 65.3886 14.928C66.4926 14.928 67.4686 15.168 68.3166 15.648C69.1646 16.112 69.8286 16.784 70.3086 17.664C70.7886 18.544 71.0286 19.576 71.0286 20.76V21.624H61.4526C61.5006 22.888 61.9086 23.88 62.6766 24.6C63.4446 25.304 64.4046 25.656 65.5566 25.656C66.5646 25.656 67.3406 25.424 67.8846 24.96C68.4286 24.496 68.8446 23.944 69.1326 23.304L70.7646 24.096C70.5246 24.592 70.1886 25.088 69.7566 25.584C69.3406 26.08 68.7886 26.496 68.1006 26.832C67.4286 27.168 66.5646 27.336 65.5086 27.336ZM61.4766 20.064H69.1086C69.0446 18.976 68.6686 18.128 67.9806 17.52C67.3086 16.912 66.4446 16.608 65.3886 16.608C64.3166 16.608 63.4366 16.912 62.7486 17.52C62.0606 18.128 61.6366 18.976 61.4766 20.064ZM74.3358 27V15.264H76.1838V17.256H76.5198C76.7758 16.696 77.2078 16.192 77.8158 15.744C78.4398 15.28 79.3518 15.048 80.5518 15.048C81.4318 15.048 82.2158 15.232 82.9038 15.6C83.6078 15.968 84.1678 16.512 84.5838 17.232C84.9998 17.952 85.2078 18.84 85.2078 19.896V27H83.3118V20.04C83.3118 18.872 83.0158 18.024 82.4238 17.496C81.8478 16.968 81.0638 16.704 80.0718 16.704C78.9358 16.704 78.0078 17.072 77.2878 17.808C76.5838 18.544 76.2318 19.64 76.2318 21.096V27H74.3358ZM93.0464 27C92.3744 27 91.8544 26.816 91.4864 26.448C91.1344 26.08 90.9584 25.576 90.9584 24.936V16.92H87.4304V15.264H90.9584V11.088H92.8544V15.264H96.6944V16.92H92.8544V24.648C92.8544 25.128 93.0864 25.368 93.5504 25.368H96.1664V27H93.0464ZM103.821 27V12.024H98.4214V10.2H111.237V12.024H105.837V27H103.821ZM116.86 27.336C115.676 27.336 114.636 27.088 113.74 26.592C112.844 26.08 112.148 25.368 111.652 24.456C111.156 23.544 110.908 22.488 110.908 21.288V21C110.908 19.784 111.156 18.72 111.652 17.808C112.148 16.896 112.836 16.192 113.716 15.696C114.596 15.184 115.604 14.928 116.74 14.928C117.844 14.928 118.82 15.168 119.668 15.648C120.516 16.112 121.18 16.784 121.66 17.664C122.14 18.544 122.38 19.576 122.38 20.76V21.624H112.804C112.852 22.888 113.26 23.88 114.028 24.6C114.796 25.304 115.756 25.656 116.908 25.656C117.916 25.656 118.692 25.424 119.236 24.96C119.78 24.496 120.196 23.944 120.484 23.304L122.116 24.096C121.876 24.592 121.54 25.088 121.108 25.584C120.692 26.08 120.14 26.496 119.452 26.832C118.78 27.168 117.916 27.336 116.86 27.336ZM112.828 20.064H120.46C120.396 18.976 120.02 18.128 119.332 17.52C118.66 16.912 117.796 16.608 116.74 16.608C115.668 16.608 114.788 16.912 114.1 17.52C113.412 18.128 112.988 18.976 112.828 20.064ZM131.087 27.336C129.951 27.336 128.927 27.096 128.015 26.616C127.119 26.12 126.407 25.416 125.879 24.504C125.367 23.592 125.111 22.512 125.111 21.264V21C125.111 19.736 125.367 18.656 125.879 17.76C126.407 16.848 127.119 16.152 128.015 15.672C128.927 15.176 129.951 14.928 131.087 14.928C132.207 14.928 133.159 15.136 133.943 15.552C134.743 15.968 135.367 16.52 135.815 17.208C136.279 17.896 136.575 18.632 136.703 19.416L134.855 19.8C134.775 19.224 134.583 18.696 134.279 18.216C133.991 17.736 133.583 17.352 133.055 17.064C132.527 16.776 131.879 16.632 131.111 16.632C130.327 16.632 129.623 16.808 128.999 17.16C128.391 17.512 127.903 18.016 127.535 18.672C127.183 19.328 127.007 20.112 127.007 21.024V21.24C127.007 22.152 127.183 22.936 127.535 23.592C127.903 24.248 128.391 24.752 128.999 25.104C129.623 25.456 130.327 25.632 131.111 25.632C132.279 25.632 133.167 25.328 133.775 24.72C134.399 24.112 134.783 23.36 134.927 22.464L136.799 22.872C136.623 23.64 136.303 24.368 135.839 25.056C135.375 25.744 134.743 26.296 133.943 26.712C133.159 27.128 132.207 27.336 131.087 27.336ZM140.031 27V10.2H141.927V17.136H142.263C142.423 16.784 142.663 16.456 142.983 16.152C143.319 15.832 143.743 15.568 144.255 15.36C144.783 15.152 145.447 15.048 146.247 15.048C147.127 15.048 147.911 15.24 148.599 15.624C149.303 15.992 149.863 16.536 150.279 17.256C150.695 17.96 150.903 18.84 150.903 19.896V27H149.007V20.04C149.007 18.872 148.711 18.024 148.119 17.496C147.543 16.968 146.759 16.704 145.767 16.704C144.631 16.704 143.703 17.072 142.983 17.808C142.279 18.544 141.927 19.64 141.927 21.096V27H140.031Z" fill="black"/>
</svg>
